<?xml version="1.0" encoding="UTF-8" standalone="no"?>
<!-- Created with Inkscape (http://www.inkscape.org/) -->

<svg
   width="512"
   height="512"
   viewBox="0 0 512 512"
   version="1.1"
   id="svg1"
   xml:space="preserve"
   inkscape:version="1.4.4 (dcaf3e7, 2026-05-05)"
   sodipodi:docname="logo.svg"
   xmlns:inkscape="http://www.inkscape.org/namespaces/inkscape"
   xmlns:sodipodi="http://sodipodi.sourceforge.net/DTD/sodipodi-0.dtd"
   xmlns="http://www.w3.org/2000/svg"
   xmlns:svg="http://www.w3.org/2000/svg"><sodipodi:namedview
     id="namedview1"
     pagecolor="#ffffff"
     bordercolor="#000000"
     borderopacity="0.25"
     inkscape:showpageshadow="2"
     inkscape:pageopacity="0.0"
     inkscape:pagecheckerboard="0"
     inkscape:deskcolor="#d1d1d1"
     inkscape:document-units="px"
     inkscape:zoom="3.1523437"
     inkscape:cx="256.63445"
     inkscape:cy="221.89839"
     inkscape:window-width="1920"
     inkscape:window-height="1046"
     inkscape:window-x="-11"
     inkscape:window-y="-11"
     inkscape:window-maximized="1"
     inkscape:current-layer="svg1" /><defs
     id="defs1"><inkscape:path-effect
       effect="bspline"
       id="path-effect6"
       is_visible="true"
       lpeversion="1.3"
       weight="33.333333"
       steps="2"
       helper_size="0"
       apply_no_weight="true"
       apply_with_weight="true"
       only_selected="false"
       uniform="false" /><inkscape:path-effect
       effect="bspline"
       id="path-effect2"
       is_visible="true"
       lpeversion="1.3"
       weight="33.333333"
       steps="2"
       helper_size="0"
       apply_no_weight="true"
       apply_with_weight="true"
       only_selected="false"
       uniform="false" /></defs><path
     style="fill:#000000;stroke:#000000"
     d="m 371.57545,280.32043 c 5.07569,2.4321 13.74632,-0.31712 19.35064,-7.40192 5.60432,-7.08479 8.14207,-18.50463 10.57414,-27.06975 2.43208,-8.56511 4.75834,-14.27503 7.71913,-19.77364 2.9608,-5.4986 6.55594,-10.78557 12.90052,-14.3808 6.34457,-3.59522 15.43815,-5.49853 22.94586,-4.12385 7.5077,1.37469 13.4291,6.02722 15.96689,11.52583 2.53778,5.49862 1.69186,11.84298 -2.43213,16.49564 -4.12399,4.65265 -11.52574,7.61335 -17.97602,15.96706 -6.45028,8.35371 -11.94873,22.09982 -18.18754,33.94296 -6.23881,11.84314 -13.21761,21.78263 -23.15743,27.49269 -9.93983,5.71005 -22.84002,7.1904 -30.34769,6.66167 -7.50766,-0.52874 -9.62244,-3.06648 -10.15114,-1.58605 -0.5287,1.48044 0.5287,6.97888 7.6135,11.5258 7.08481,4.54692 20.19649,8.14205 33.60654,10.00857 13.41005,1.86651 27.11742,2.00432 37.69177,4.85939 10.57435,2.85508 18.01459,8.42719 22.58073,15.54879 4.56614,7.1216 6.25797,15.79222 5.62349,24.67459 -0.63448,8.88237 -3.59518,17.97595 -10.0455,25.69514 -6.45033,7.71919 -16.38983,14.06355 -24.10901,16.17835 -7.71918,2.11481 -13.21762,3e-5 -18.29326,-3.278 -5.07563,-3.27803 -9.72816,-7.71908 -11.42001,-11.94878 -1.69185,-4.2297 -0.42298,-8.24779 3.06654,-10.15114 3.48953,-1.90334 9.19945,-1.69186 15.5643,-4.51098 6.36485,-2.81911 7.68866,-3.92229 8.80395,-8.37648 1.11529,-4.45419 -3.53724,-7.62637 -9.56458,-8.78952 -6.02733,-1.16315 -13.42909,-0.31723 -21.78275,0.95168 -8.35367,1.26892 -17.65873,2.96075 -30.24212,-0.21158 -12.58339,-3.17232 -28.44428,-11.20851 -38.38402,-18.71622 -9.93973,-7.50771 -13.95783,-14.48651 -14.69799,-10.2567 -0.74017,4.22981 1.79758,19.66775 7.40196,32.7798 5.60438,13.11204 14.275,23.89745 20.09081,32.67406 5.81581,8.77661 8.77651,15.54392 8.56499,25.06077 -0.21151,9.51685 -3.59517,21.78262 -10.25698,30.66495 -6.66181,8.88234 -16.6013,14.38078 -26.43535,15.01518 -9.83405,0.63441 -19.56207,-3.59516 -25.6951,-8.8823 -6.13302,-5.28713 -8.67077,-11.63149 -9.72818,-16.81286 -1.05741,-5.18137 -0.63445,-9.19946 2.96082,-9.19942 3.59528,4e-5 10.3626,4.01813 15.54396,5.60425 5.18137,1.58611 8.77651,0.74019 11.5258,-2.22062 2.7493,-2.96081 4.65261,-8.0363 0.3171,-15.43829 -4.3355,-7.402 -14.90943,-17.13001 -23.15733,-25.48366 -8.24789,-8.35364 -14.16929,-15.33244 -18.50472,-27.59862 -4.33542,-12.26618 -7.08464,-29.81891 -12.79477,-32.56806 -5.71012,-2.74916 -14.38074,9.30512 -23.15737,20.40807 -8.77663,11.10296 -17.65873,21.25393 -23.26305,30.87649 -5.60432,9.62256 -7.93058,18.71614 -7.82481,25.37789 0.10576,6.66176 2.6435,10.89133 6.66173,12.90042 4.01823,2.00908 9.51668,1.7976 13.64062,-0.6345 4.12394,-2.4321 6.87317,-7.08463 10.36267,-8.45925 3.48951,-1.37462 7.71909,0.5287 10.67986,3.48949 2.96078,2.9608 4.65261,6.9789 3.7009,12.37178 -0.95171,5.39288 -4.54684,12.16019 -11.84311,17.23581 -7.29627,5.07562 -18.29316,8.45928 -30.03059,6.02715 -11.73742,-2.43214 -24.21466,-10.6798 -31.51084,-19.24495 -7.29617,-8.56514 -9.41096,-17.44724 -10.0454,-26.22387 -0.63444,-8.77662 0.21147,-17.44725 4.75843,-30.24213 4.54697,-12.79488 12.79464,-29.71317 19.87937,-40.49884 7.08474,-10.78568 13.00614,-15.43821 9.93952,-15.22667 -3.06663,0.21153 -15.12091,5.28702 -24.84919,10.36266 -9.72829,5.07564 -17.13004,10.15112 -26.54114,12.9004 -9.4111,2.74929 -20.83095,3.17224 -31.1937,2.64352 -10.36276,-0.52872 -19.667815,-2.00907 -26.75254,0.95176 -7.084725,2.96084 -11.948732,10.36259 -12.900375,15.22672 -0.951642,4.86413 2.009057,7.19039 6.450256,7.61334 4.441199,0.42295 10.362601,-1.0574 15.755462,-0.21144 5.392857,0.84597 10.256867,4.01815 9.410877,9.30529 -0.846,5.28715 -7.401838,12.6889 -15.226794,17.02431 -7.824957,4.33541 -16.918539,5.60428 -24.849213,1.90325 -7.930675,-3.70104 -14.69799,-12.37166 -19.244895,-20.61957 -4.546905,-8.24791 -6.87317,-16.07262 -6.238686,-25.27223 0.634484,-9.19961 4.229621,-19.77354 9.833994,-27.17548 5.604373,-7.40195 13.217601,-11.63152 21.677008,-14.48655 8.459407,-2.85504 17.764468,-4.33539 29.924886,-4.86409 12.16041,-0.5287 27.17539,-0.10575 39.54723,-3.70103 12.37185,-3.59528 22.09987,-11.20851 19.56192,-11.94864 -2.53794,-0.74013 -17.34144,5.39275 -29.71329,6.23863 -12.37184,0.84589 -22.31134,-3.59516 -28.65585,-10.04547 -6.344514,-6.45031 -9.093738,-14.90946 -11.314324,-23.36885 -2.220586,-8.4594 -3.912416,-16.91855 -8.142141,-21.88841 -4.229724,-4.96986 -10.99704,-6.45021 -15.543944,-2.3262 -4.546905,4.12401 -6.873171,13.85203 -11.843093,14.16916 -4.969922,0.31714 -12.583157,-8.77645 -13.217542,-17.8703 -0.634386,-9.09385 5.709972,-18.18743 15.015342,-24.00324 9.30537,-5.8158 21.571132,-8.35355 33.202798,-4.12378 11.631664,4.22977 22.628554,15.22666 28.338594,24.32049 5.71005,9.09384 6.133,16.28411 12.79484,19.56209 6.66184,3.27798 19.56204,2.64354 23.79165,-2.85512 4.22961,-5.49866 -0.21144,-15.86111 -6.45027,-32.03977 -6.23882,-16.17866 -14.27501,-38.17243 -16.28406,-63.02195 -2.00904,-24.84951 2.00905,-52.55321 11.42019,-75.49928 9.41113,-22.94607 24.21464,-41.133235 42.50812,-52.97633 18.29349,-11.843096 40.07579,-17.34154 58.47494,-19.139126 18.39916,-1.797585 33.41415,0.105724 51.07317,6.873291 17.65902,6.767568 37.96097,18.398894 51.49594,30.559285 13.53497,12.160391 20.30229,24.849109 26.54109,41.34497 6.2388,16.49587 11.94872,36.79782 13.0061,56.25443 1.05738,19.45661 -2.53776,38.06673 -7.29618,54.56253 -4.75843,16.49581 -10.67983,30.87636 -12.9004,41.87347 -2.22057,10.9971 -0.74022,18.61034 4.33547,21.04244 z"
     id="path2"
     inkscape:path-effect="#path-effect2"
     inkscape:original-d="m 367.98017,285.50186 c 8.67097,-2.74933 17.3416,-5.49856 26.0124,-8.24783 2.53784,-11.42031 5.07558,-22.84015 7.61338,-34.26023 2.32636,-5.71015 4.65262,-11.42007 6.97893,-17.13011 3.59528,-5.28717 7.19042,-10.57414 10.78563,-15.86121 9.09394,-1.90339 18.18752,-3.80669 27.28129,-5.71004 5.92164,4.65272 11.84304,9.30525 17.76456,13.95787 -0.84595,6.34461 -1.69187,12.68897 -2.5378,19.03346 -7.40205,2.96082 -14.8038,5.92152 -22.2057,8.88228 -5.49866,13.74666 -10.99711,27.49277 -16.49566,41.23915 -6.97907,9.9399 -13.95787,19.87939 -20.9368,29.81909 -12.90072,1.48041 -25.80091,2.96076 -38.70137,4.44114 -2.11487,-2.53785 -4.22965,-5.07559 -6.34448,-7.61339 1.05743,5.49867 2.11483,10.99711 3.17224,16.49567 13.1122,3.59528 26.22388,7.19041 39.33581,10.78562 13.70817,0.13782 27.41554,0.27563 41.12371,0.41345 7.44053,5.57233 14.88077,11.14444 22.32115,16.71666 1.6919,8.67098 3.38373,17.3416 5.07559,26.0124 -2.96082,9.09394 -5.92152,18.18752 -8.88228,27.28129 -9.93989,6.34461 -19.87939,12.68897 -29.81908,19.03345 -5.49867,-2.11487 -10.99711,-4.22965 -16.49567,-6.34448 -4.65271,-4.44123 -9.30524,-8.88228 -13.95787,-13.32342 1.26893,-4.01826 2.5378,-8.03635 3.8067,-12.05453 5.71015,0.21149 11.42007,0.42297 17.13011,0.63445 9.45066,-2.93251 10.14757,-4.78798 15.22676,-12.68897 -4.65271,-3.17231 -9.30524,-6.34449 -13.95787,-9.51673 -7.40204,0.84595 -14.8038,1.69186 -22.2057,2.5378 -9.30543,1.69189 -18.61049,3.38372 -27.91573,5.07559 -15.86154,-8.03651 -31.72243,-16.0727 -47.58365,-24.10905 -4.01825,-6.97907 -8.03635,-13.95787 -12.05452,-20.9368 2.53785,15.43855 5.07559,30.87649 7.61338,46.31474 8.67097,10.78584 17.3416,21.57125 26.01239,32.35688 2.96082,6.76759 5.92152,13.5349 8.88228,20.30235 -3.38379,12.26625 -6.76745,24.53202 -10.15117,36.79802 -9.9399,5.49867 -19.87939,10.99711 -29.81909,16.49566 -9.7284,-4.22974 -19.45642,-8.45931 -29.18463,-12.68897 -2.53784,-6.34461 -5.07559,-12.68897 -7.61338,-19.03345 0.42297,-4.01826 0.84593,-8.03635 1.26889,-12.05453 6.76759,4.01826 13.53491,8.03635 20.30236,12.05453 3.59528,-0.84595 7.19042,-1.69187 10.78562,-2.5378 1.90339,-5.07569 3.8067,-10.15118 5.71004,-15.22676 -10.57435,-9.72841 -21.14828,-19.45643 -31.72243,-29.18464 -5.92164,-6.97907 -11.84304,-13.95787 -17.76456,-20.9368 -2.74933,-17.55343 -5.49855,-35.10616 -8.24783,-52.65923 -8.67097,12.05476 -17.34159,24.10904 -26.01239,36.16356 -8.88246,10.15139 -17.76456,20.30236 -26.64684,30.45354 -2.32636,9.09394 -4.65262,18.18752 -6.97893,27.28129 2.53784,4.22974 5.07558,8.45931 7.61338,12.68897 5.49866,-0.21149 10.99711,-0.42297 16.49566,-0.63445 2.74933,-4.65272 5.49856,-9.30525 8.24783,-13.95787 4.22974,1.90338 8.45932,3.80669 12.68897,5.71004 1.6919,4.01825 3.38373,8.03635 5.07559,12.05452 -3.59528,6.76759 -7.19041,13.5349 -10.78562,20.30235 -10.99733,3.3838 -21.99422,6.76746 -32.99133,10.15118 -12.47774,-8.248 -24.95498,-16.49566 -37.43246,-24.74349 -2.11488,-8.88246 -4.22966,-17.76456 -6.34449,-26.64684 0.84595,-8.67097 1.69186,-17.3416 2.53779,-26.01239 8.248,-16.91897 16.49567,-33.83726 24.7435,-50.75589 5.92164,-4.65272 11.84304,-9.30525 17.76456,-13.95787 -12.05477,5.07569 -24.10905,10.15118 -36.16357,15.22677 -7.40205,5.07569 -14.8038,10.15117 -22.2057,15.22676 -11.4203,0.42298 -22.84015,0.84593 -34.26022,1.2689 -9.30544,-1.48041 -18.610495,-2.96076 -27.915741,-4.44114 -4.864203,7.40205 -9.728211,14.8038 -14.592317,22.2057 2.960819,2.32636 5.92152,4.65262 8.88228,6.97893 5.921638,-1.48041 11.84304,-2.96076 17.76456,-4.44114 4.864198,3.17231 9.728208,6.34449 14.592318,9.51673 -6.5561,7.40205 -13.111938,14.8038 -19.667907,22.2057 -9.093944,1.26892 -18.187525,2.5378 -27.281288,3.80669 C 57.946168,417.04402 51.178852,408.3734 44.4114,399.7026 c -2.326358,-7.82502 -4.652623,-15.64973 -6.978934,-23.4746 3.59528,-10.57435 7.190417,-21.14828 10.785626,-31.72242 7.613535,-4.22975 15.226765,-8.45932 22.840148,-12.68898 9.305432,-1.4804 18.610492,-2.96076 27.915738,-4.44114 15.015582,0.42298 30.030562,0.84594 45.045852,1.2689 9.7284,-7.61353 19.45642,-15.22676 29.18463,-22.84015 -14.8041,6.13313 -29.6076,12.26601 -44.4114,18.39901 -9.93989,-4.44123 -19.87939,-8.88228 -29.819082,-13.32342 -2.749332,-8.45948 -5.498555,-16.91863 -8.247832,-25.37794 -1.691896,-8.45948 -3.383726,-16.91863 -5.075588,-25.37794 -6.767587,-1.48041 -13.534903,-2.96076 -20.302355,-4.44114 -2.326358,9.7284 -4.652623,19.45642 -6.978934,29.18463 -7.613535,-9.09394 -15.226766,-18.18753 -22.840149,-27.28129 6.344613,-9.09394 12.688972,-18.18752 19.033457,-27.28129 12.266252,-2.53784 24.532012,-5.07559 36.798018,-7.61338 10.997325,10.99733 21.994215,21.99422 32.991325,32.99133 0.42297,7.19056 0.84593,14.38083 1.2689,21.57125 12.90071,-0.63446 25.80091,-1.2689 38.70136,-1.90335 -4.44123,-10.36287 -8.88228,-20.72532 -13.32342,-31.08798 -8.03651,-21.99466 -16.0727,-43.98843 -24.10905,-65.98265 4.01826,-27.70481 8.03635,-55.40851 12.05453,-83.112764 14.80409,-18.187889 29.6076,-36.375051 44.4114,-54.562577 21.78317,-5.498664 43.56547,-10.997109 65.3482,-16.495663 15.01558,1.903384 30.03057,3.806691 45.04585,5.710037 20.30276,11.63179 40.60471,23.263114 60.90706,34.894672 6.76759,12.689225 13.53491,25.377943 20.30236,38.066915 5.71015,20.30276 11.42007,40.60471 17.13011,60.90706 -3.59528,18.61087 -7.19042,37.22099 -10.78563,55.83148 -5.92163,14.38112 -11.84304,28.76167 -17.76456,43.1425 1.48038,7.61338 2.96073,15.22662 4.44114,22.84015 z"
     transform="translate(2.8416491,-1.2688969)"
     sodipodi:nodetypes="cccccccccccccccccccccccccccccccccccccccccccccccccccccccccccccccccccccccccccccccccccccccccccccccccccc" /><ellipse
     style="fill:#000000;fill-opacity:1;stroke:#ffffff;stroke-width:3.5;stroke-dasharray:none;stroke-opacity:1"
     id="path3"
     cx="193.8051"
     cy="201.76814"
     rx="16.599047"
     ry="20.075874" /><ellipse
     style="fill:#000000;fill-opacity:1;stroke:#ffffff;stroke-width:3.5;stroke-dasharray:none;stroke-opacity:1"
     id="path3-4"
     cx="315.91898"
     cy="199.9493"
     rx="16.599047"
     ry="20.075874" /><ellipse
     style="fill:#ffffff;stroke:none"
     id="path4"
     cx="196.8333"
     cy="195.8239"
     rx="6.8414989"
     ry="6.9536548" /><ellipse
     style="fill:#ffffff;stroke:none;stroke-width:0.911423"
     id="path5"
     cx="318.63443"
     cy="193.46629"
     rx="6.6171875"
     ry="6.6148529" /><path
     style="fill:#ffffff;fill-opacity:1;stroke:none"
     d="m 242.33113,218.06811 c 1.04679,-1.0094 3.2899,-0.85986 4.89748,0.2991 1.60758,1.15897 2.57957,3.32727 4.29932,5.08439 1.71974,1.75712 4.18712,3.10296 5.64515,4.14976 1.45803,1.04679 1.90664,1.79448 4.03763,2.13094 2.131,0.33647 5.94422,0.2617 8.86029,-0.71033 2.91607,-0.97204 4.93483,-2.84126 6.57979,-4.33668 1.64497,-1.49542 2.91604,-2.61696 4.22454,-4.26193 1.30849,-1.64497 2.65434,-3.81327 4.22454,-4.44881 1.57019,-0.63555 3.36465,0.26168 4.26189,2.01882 0.89725,1.75713 0.89725,4.37404 -0.5608,7.25274 -1.45806,2.87869 -4.37405,6.01899 -8.22478,8.2995 -3.85072,2.28052 -8.63594,3.70113 -13.19698,4.03759 -4.56104,0.33646 -8.89764,-0.41123 -12.82313,-1.98144 -3.92549,-1.5702 -7.43963,-3.96281 -9.53321,-6.13117 -2.09358,-2.16836 -2.7665,-4.11236 -3.17774,-6.16857 -0.41124,-2.05621 -0.56078,-4.22451 0.48601,-5.23391 z"
     id="path6"
     inkscape:path-effect="#path-effect6"
     inkscape:original-d="m 241.1348,216.90917 c 2.24312,0.14954 4.48623,0.29908 6.72935,0.44862 0.97203,2.16839 1.94403,4.33669 2.91605,6.50503 2.46747,1.3459 4.93485,2.69174 7.40227,4.03761 0.44864,0.74772 0.89725,1.49541 1.34587,2.24311 3.81337,-0.0748 7.62659,-0.14954 11.43989,-0.22431 2.01884,-1.8693 4.0376,-3.73852 6.0564,-5.60778 1.27113,-1.12158 2.5422,-2.24312 3.8133,-3.36468 1.34589,-2.16838 2.69174,-4.33668 4.03761,-6.50503 1.79452,0.89727 3.58898,1.79449 5.38347,2.69174 0,2.61702 0,5.23393 0,7.8509 -2.91611,3.14042 -5.8321,6.28072 -8.74815,9.42108 -4.7854,1.42067 -9.57062,2.84128 -14.35593,4.26192 -4.33677,-0.74772 -8.67337,-1.49541 -13.01006,-2.24312 -3.51429,-2.3927 -7.02843,-4.78531 -10.54264,-7.17796 -0.67295,-1.94407 -1.34587,-3.88807 -2.0188,-5.8321 -0.14955,-2.16839 -0.29909,-4.33669 -0.44863,-6.50503 z"
     transform="translate(-9.755567,-0.44862289)" /><rect
     style="fill:#000000;fill-opacity:1;stroke:#ffffff;stroke-width:7;stroke-dasharray:none;stroke-opacity:1"
     id="rect6"
     width="351.34283"
     height="66.067009"
     x="80.328583"
     y="289.13492" /><text
     xml:space="preserve"
     style="font-style:normal;font-variant:normal;font-weight:bold;font-stretch:normal;font-size:42.6667px;font-family:sans-serif;-inkscape-font-specification:'sans-serif Bold';writing-mode:lr-tb;direction:ltr;fill:#ffffff;fill-opacity:1;stroke:none;stroke-width:7;stroke-dasharray:none;stroke-opacity:1"
     x="104.40614"
     y="337.11105"
     id="text6"><tspan
       sodipodi:role="line"
       id="tspan6"
       x="104.40614"
       y="337.11105">OCTOBOARD</tspan></text></svg>
