M48
; DRILL file KiCad 10.0.4 date 2026-07-06T15:36:52
; FORMAT={-:-/ absolute / metric / decimal}
; #@! TF.CreationDate,2026-07-06T15:36:52+01:00
; #@! TF.GenerationSoftware,Kicad,Pcbnew,10.0.4
; #@! TF.FileFunction,Plated,1,2,PTH
FMAT,2
METRIC
; #@! TA.AperFunction,Plated,PTH,ViaDrill
T1C0.300
; #@! TA.AperFunction,Plated,PTH,ComponentDrill
T2C0.800
; #@! TA.AperFunction,Plated,PTH,ComponentDrill
T3C0.900
; #@! TA.AperFunction,Plated,PTH,ComponentDrill
T4C1.000
; #@! TA.AperFunction,Plated,PTH,ComponentDrill
T5C1.100
%
G90
G05
T1
X94.0Y-49.5
X96.0Y-106.0
X96.5Y-110.5
X97.5Y-114.5
X98.5Y-66.0
X98.5Y-104.0
X98.5Y-108.5
X99.0Y-105.0
X106.0Y-49.5
X108.0Y-83.5
X108.0Y-88.5
X108.5Y-92.5
X109.0Y-62.0
X109.0Y-68.5
X109.0Y-76.5
X110.0Y-66.5
X111.0Y-75.0
X111.5Y-91.0
X111.5Y-94.0
X115.0Y-89.0
X116.0Y-70.0
X116.0Y-91.0
X116.83Y-83.75
X120.0Y-77.0
X121.0Y-81.5
X122.0Y-89.5
X122.0Y-100.0
X124.362Y-94.362
X124.5Y-88.0
X125.5Y-76.0
X126.5Y-92.225
X126.5Y-94.5
X127.45Y-86.45
X127.5Y-76.5
X129.0Y-80.0
X129.5Y-57.5
X129.5Y-62.0
X131.0Y-87.0
X131.0Y-97.5
X131.5Y-92.5
X132.0Y-62.0
X132.0Y-85.0
X134.5Y-49.5
T2
X102.19Y-102.0
X102.25Y-106.5
X103.0Y-79.25
X103.0Y-81.75
X104.75Y-106.5
X106.0Y-64.42
X106.0Y-66.96
X106.0Y-69.5
X106.0Y-72.04
X106.0Y-74.58
X106.0Y-77.12
X106.0Y-79.66
X106.0Y-82.2
X106.0Y-84.74
X106.0Y-87.28
X106.0Y-89.82
X106.0Y-92.36
X106.0Y-94.9
X106.0Y-97.44
X109.0Y-58.5
X109.81Y-102.0
X111.0Y-58.5
X113.62Y-64.42
X113.62Y-66.96
X113.62Y-69.5
X113.62Y-72.04
X113.62Y-74.58
X113.62Y-77.12
X113.62Y-79.66
X113.62Y-82.2
X113.62Y-84.74
X113.62Y-87.28
X113.62Y-89.82
X113.62Y-92.36
X113.62Y-94.9
X113.62Y-97.44
X117.19Y-97.0
X117.69Y-63.5
X117.75Y-67.5
X119.0Y-73.56
X119.0Y-78.44
X120.0Y-83.75
X120.0Y-86.25
X120.25Y-67.5
X123.5Y-52.0
X123.5Y-77.25
X123.5Y-79.75
X124.81Y-97.0
X125.31Y-63.5
X125.5Y-52.0
X126.5Y-57.75
X126.5Y-60.25
X129.0Y-69.69
X129.0Y-77.31
T3
X117.73Y-92.36
X120.27Y-92.36
X125.0Y-66.73
X125.0Y-69.27
T4
X93.96Y-84.78
X93.96Y-87.32
X93.96Y-89.86
X93.96Y-92.4
X93.96Y-94.94
X93.96Y-97.48
X94.0Y-64.51
X94.0Y-67.05
X94.0Y-69.59
X94.0Y-72.13
X94.0Y-74.67
X94.0Y-77.21
X94.0Y-104.34
X94.0Y-106.88
X94.0Y-109.42
X94.0Y-111.96
X94.0Y-114.5
X94.0Y-117.04
X113.96Y-102.225
X113.96Y-104.765
X116.5Y-102.225
X116.5Y-104.765
X119.04Y-102.225
X119.04Y-104.765
X135.0Y-57.725
X135.0Y-60.265
X135.0Y-64.92
X135.0Y-67.46
X135.0Y-70.0
X135.0Y-72.54
X135.0Y-75.08
X135.0Y-77.62
X135.0Y-80.16
X135.0Y-82.7
X135.0Y-90.0
X135.0Y-92.54
X135.0Y-95.08
X135.0Y-97.62
T5
X109.0Y-52.0
X115.92Y-57.5
X118.46Y-57.5
X119.16Y-52.0
X121.0Y-57.5
X124.25Y-83.75
X124.25Y-90.25
X128.75Y-83.75
X128.75Y-90.25
T4
G00X95.257Y-57.0
M15
G01X95.257Y-59.0
M16
G05
G00X100.957Y-55.0
M15
G01X98.957Y-55.0
M16
G05
G00X100.957Y-61.0
M15
G01X98.957Y-61.0
M16
G05
M30
