%TF.GenerationSoftware,KiCad,Pcbnew,10.0.4*%
%TF.CreationDate,2026-07-07T21:00:56+01:00*%
%TF.ProjectId,octoboard,6f63746f-626f-4617-9264-2e6b69636164,rev?*%
%TF.SameCoordinates,Original*%
%TF.FileFunction,Soldermask,Bot*%
%TF.FilePolarity,Negative*%
%FSLAX46Y46*%
G04 Gerber Fmt 4.6, Leading zero omitted, Abs format (unit mm)*
G04 Created by KiCad (PCBNEW 10.0.4) date 2026-07-07 21:00:56*
%MOMM*%
%LPD*%
G01*
G04 APERTURE LIST*
G04 Aperture macros list*
%AMRoundRect*
0 Rectangle with rounded corners*
0 $1 Rounding radius*
0 $2 $3 $4 $5 $6 $7 $8 $9 X,Y pos of 4 corners*
0 Add a 4 corners polygon primitive as box body*
4,1,4,$2,$3,$4,$5,$6,$7,$8,$9,$2,$3,0*
0 Add four circle primitives for the rounded corners*
1,1,$1+$1,$2,$3*
1,1,$1+$1,$4,$5*
1,1,$1+$1,$6,$7*
1,1,$1+$1,$8,$9*
0 Add four rect primitives between the rounded corners*
20,1,$1+$1,$2,$3,$4,$5,0*
20,1,$1+$1,$4,$5,$6,$7,0*
20,1,$1+$1,$6,$7,$8,$9,0*
20,1,$1+$1,$8,$9,$2,$3,0*%
G04 Aperture macros list end*
%ADD10C,2.200000*%
%ADD11C,1.600000*%
%ADD12R,3.500000X3.500000*%
%ADD13RoundRect,0.750000X-1.000000X0.750000X-1.000000X-0.750000X1.000000X-0.750000X1.000000X0.750000X0*%
%ADD14RoundRect,0.875000X-0.875000X0.875000X-0.875000X-0.875000X0.875000X-0.875000X0.875000X0.875000X0*%
%ADD15R,1.800000X1.800000*%
%ADD16C,1.800000*%
%ADD17R,1.700000X1.700000*%
%ADD18C,1.700000*%
%ADD19RoundRect,0.250000X0.550000X0.550000X-0.550000X0.550000X-0.550000X-0.550000X0.550000X-0.550000X0*%
%ADD20R,1.905000X2.000000*%
%ADD21O,1.905000X2.000000*%
%ADD22RoundRect,0.250000X-0.550000X-0.550000X0.550000X-0.550000X0.550000X0.550000X-0.550000X0.550000X0*%
%ADD23C,2.000000*%
%ADD24C,1.500000*%
%ADD25RoundRect,0.249999X0.850001X0.850001X-0.850001X0.850001X-0.850001X-0.850001X0.850001X-0.850001X0*%
G04 APERTURE END LIST*
D10*
%TO.C,H3*%
X134500000Y-49500000D03*
%TD*%
%TO.C,H2*%
X134500000Y-119000000D03*
%TD*%
%TO.C,H1*%
X101500000Y-119000000D03*
%TD*%
D11*
%TO.C,R1*%
X129000000Y-69690000D03*
X129000000Y-77310000D03*
%TD*%
D12*
%TO.C,J7*%
X99957500Y-61000000D03*
D13*
X99957500Y-55000000D03*
D14*
X95257500Y-58000000D03*
%TD*%
D15*
%TO.C,D4*%
X120270000Y-92360000D03*
D16*
X117730000Y-92360000D03*
%TD*%
D17*
%TO.C,J3*%
X135000000Y-82700000D03*
D18*
X135000000Y-80160000D03*
X135000000Y-77620000D03*
X135000000Y-75080000D03*
X135000000Y-72540000D03*
X135000000Y-70000000D03*
X135000000Y-67460000D03*
X135000000Y-64920000D03*
%TD*%
D19*
%TO.C,C8*%
X111000000Y-58500000D03*
D11*
X109000000Y-58500000D03*
%TD*%
%TO.C,C5*%
X126500000Y-57750000D03*
X126500000Y-60250000D03*
%TD*%
D20*
%TO.C,U2*%
X121000000Y-57500000D03*
D21*
X118460000Y-57500000D03*
X115920000Y-57500000D03*
%TD*%
D11*
%TO.C,R2*%
X117690000Y-63500000D03*
X125310000Y-63500000D03*
%TD*%
D17*
%TO.C,J1*%
X119040000Y-102225000D03*
D18*
X119040000Y-104765000D03*
X116500000Y-102225000D03*
X116500000Y-104765000D03*
X113960000Y-102225000D03*
X113960000Y-104765000D03*
%TD*%
D11*
%TO.C,C2*%
X123500000Y-77250000D03*
X123500000Y-79750000D03*
%TD*%
D22*
%TO.C,D1*%
X102190000Y-102000000D03*
D11*
X109810000Y-102000000D03*
%TD*%
D17*
%TO.C,J8*%
X135000000Y-57725000D03*
D18*
X135000000Y-60265000D03*
%TD*%
D23*
%TO.C,SW1*%
X124250000Y-90250000D03*
X124250000Y-83750000D03*
X128750000Y-90250000D03*
X128750000Y-83750000D03*
%TD*%
D11*
%TO.C,C1*%
X117750000Y-67500000D03*
X120250000Y-67500000D03*
%TD*%
%TO.C,R3*%
X117190000Y-97000000D03*
X124810000Y-97000000D03*
%TD*%
D15*
%TO.C,D2*%
X125000000Y-66730000D03*
D16*
X125000000Y-69270000D03*
%TD*%
D17*
%TO.C,J5*%
X93960000Y-84780000D03*
D18*
X93960000Y-87320000D03*
X93960000Y-89860000D03*
X93960000Y-92400000D03*
X93960000Y-94940000D03*
X93960000Y-97480000D03*
%TD*%
D24*
%TO.C,Y1*%
X119000000Y-73560000D03*
X119000000Y-78440000D03*
%TD*%
D11*
%TO.C,C4*%
X103000000Y-79250000D03*
X103000000Y-81750000D03*
%TD*%
%TO.C,C3*%
X120000000Y-86250000D03*
X120000000Y-83750000D03*
%TD*%
%TO.C,C6*%
X104750000Y-106500000D03*
X102250000Y-106500000D03*
%TD*%
D19*
%TO.C,U1*%
X113620000Y-97440000D03*
D11*
X113620000Y-94900000D03*
X113620000Y-92360000D03*
X113620000Y-89820000D03*
X113620000Y-87280000D03*
X113620000Y-84740000D03*
X113620000Y-82200000D03*
X113620000Y-79660000D03*
X113620000Y-77120000D03*
X113620000Y-74580000D03*
X113620000Y-72040000D03*
X113620000Y-69500000D03*
X113620000Y-66960000D03*
X113620000Y-64420000D03*
X106000000Y-64420000D03*
X106000000Y-66960000D03*
X106000000Y-69500000D03*
X106000000Y-72040000D03*
X106000000Y-74580000D03*
X106000000Y-77120000D03*
X106000000Y-79660000D03*
X106000000Y-82200000D03*
X106000000Y-84740000D03*
X106000000Y-87280000D03*
X106000000Y-89820000D03*
X106000000Y-92360000D03*
X106000000Y-94900000D03*
X106000000Y-97440000D03*
%TD*%
D17*
%TO.C,J6*%
X135000000Y-97620000D03*
D18*
X135000000Y-95080000D03*
X135000000Y-92540000D03*
X135000000Y-90000000D03*
%TD*%
D17*
%TO.C,J4*%
X94000000Y-64510000D03*
D18*
X94000000Y-67050000D03*
X94000000Y-69590000D03*
X94000000Y-72130000D03*
X94000000Y-74670000D03*
X94000000Y-77210000D03*
%TD*%
D25*
%TO.C,D3*%
X119160000Y-52000000D03*
D10*
X109000000Y-52000000D03*
%TD*%
D17*
%TO.C,J2*%
X94000000Y-117040000D03*
D18*
X94000000Y-114500000D03*
X94000000Y-111960000D03*
X94000000Y-109420000D03*
X94000000Y-106880000D03*
X94000000Y-104340000D03*
%TD*%
D22*
%TO.C,C7*%
X123500000Y-52000000D03*
D11*
X125500000Y-52000000D03*
%TD*%
M02*
